<svg width="44" height="44" viewBox="0 0 44 44" fill="none" xmlns="http://www.w3.org/2000/svg">
<path d="M44 24.3265V19.6735L40.1353 19.6698C40.0272 18.832 39.864 18.0125 39.6458 17.2132L43.2153 15.73L41.4333 11.4308L37.862 12.9067C37.444 12.1807 36.9783 11.4858 36.4668 10.8258L39.2003 8.08867L35.9095 4.79967L33.1723 7.53133C32.5142 7.02167 31.8193 6.55417 31.0915 6.138L32.5673 2.56483L28.27 0.784667L26.7868 4.35417C25.9875 4.13783 25.168 3.97283 24.3302 3.8665L24.3283 0H19.6735L19.6698 3.8665C18.832 3.97283 18.0125 4.13783 17.2132 4.35417L15.73 0.784667L11.4308 2.56483L12.9067 6.138C12.1807 6.55417 11.4858 7.02167 10.8258 7.53133L8.08867 4.79967L4.79967 8.08867L7.53133 10.8258C7.02167 11.4858 6.55417 12.1807 6.138 12.9067L2.56483 11.4308L0.784667 15.73L4.35417 17.2132C4.13783 18.0125 3.97283 18.832 3.8665 19.6698L0 19.6735V24.3265L3.8665 24.3302C3.97283 25.168 4.13783 25.9875 4.35417 26.7868L0.784667 28.27L2.56483 32.5692L6.138 31.0933C6.556 31.8193 7.02167 32.5142 7.53133 33.1742L4.79967 35.9113L8.08867 39.2003L10.8258 36.4687C11.4858 36.9783 12.1807 37.4458 12.9067 37.862L11.4308 41.4352L15.73 43.2153L17.2132 39.6458C18.0125 39.8622 18.832 40.0272 19.6698 40.1335L19.6735 44H24.3283L24.332 40.1335C25.1698 40.0272 25.9893 39.8622 26.7887 39.6458L28.2718 43.2153L32.571 41.4352L31.0952 37.862C31.8212 37.444 32.516 36.9783 33.176 36.4687L35.9132 39.2003L39.204 35.9113L36.4705 33.1742C36.9802 32.5142 37.4477 31.8193 37.8657 31.0933L41.437 32.5692L43.219 28.27L39.6495 26.7868C39.8658 25.9875 40.0308 25.168 40.139 24.3302L44 24.3265ZM22 29.3333C17.9502 29.3333 14.6667 26.0498 14.6667 22C14.6667 17.9502 17.9502 14.6667 22 14.6667C26.0498 14.6667 29.3333 17.9502 29.3333 22C29.3333 26.0498 26.0498 29.3333 22 29.3333Z" fill="#1B1B1B"/>
</svg>
