<svg width="762" height="295" viewBox="0 0 762 295" fill="none" xmlns="http://www.w3.org/2000/svg">
<path d="M5.00544 294.5C-8.99456 200.667 -1.99455 55.4 138.005 225C313.005 437 260.505 21.5 289.505 0C313.905 25.6 315.005 195.333 312.505 277C259.505 264.333 142.105 204.5 96.5054 66.5C179.305 173.7 279.339 214.833 323.005 201V227C321.505 218.333 322.005 201 336.005 201C325.005 207.549 312.505 215.5 334.005 225C346.005 225 345.339 209 343.505 201C340.839 212.333 340.405 233.1 360.005 221.5C360.005 216.298 360.005 211.901 360.005 208.5M360.005 201C360.005 201.982 360.005 204.579 360.005 208.5M360.005 208.5C361.839 203 366.505 195.3 370.505 208.5C371.705 218.9 371.005 221.5 370.505 221.5C369.505 210.833 370.105 192.7 380.505 205.5C384.505 215 372.16 242.714 370.505 249C358.005 296.5 434.005 312.5 421.505 249M380.505 201C383.172 202.167 390.705 203.8 399.505 201C387.505 210 385.005 214.5 382.005 221.5C392.505 215.5 397.505 220 399.505 221.5C401.505 223 405.505 217.5 407.005 182.5C401.005 208.5 405.005 214.5 406.005 221.5C403.8 204 407.505 201 412.005 201C416.505 201 419.505 209 417.005 217C417.005 224 423.005 221 423.505 214.5C424.005 208 423.505 197.5 434.005 202.5C422.505 196 416.505 234 434.005 214.5C433.205 199.7 433.672 199.333 434.005 201C431.839 209.833 430.005 225.6 440.005 218M440.005 201V221.5C439.172 212.667 439.705 196.5 448.505 202.5C450.905 204.1 449.839 212.833 449.005 217C448.172 221.333 448.505 228.6 456.505 223M440.005 124.5C440.339 104.167 429.205 58 382.005 36C470.805 60.4 547.339 46.1667 574.505 36C548.005 90.6667 472.405 218.9 382.005 294.5C521.505 202.5 570.505 247.5 597.005 283M507.505 223C510.505 208.667 516.505 177 516.505 165C509.305 186.2 510.505 212.5 512.005 223C509.672 212.833 509.205 194.2 526.005 201C529.205 202.2 527.339 211.5 526.005 216C525.005 220.333 524.805 226.2 532.005 215C531.505 200 544.505 198 548.005 205M548.005 205C538.505 192 519.005 220.5 542.505 223C546.839 222 554.005 217 548.005 205ZM548.005 205C550.292 202.1 553.366 197.994 556.475 193.5M556.475 193.5C562.656 184.563 568.973 174.089 569.505 168.5C570.505 158 562.444 117 556.475 193.5ZM556.475 193.5C553.651 210.167 549.105 237.8 569.505 215C569.505 205 579.705 197 586.505 205M586.505 205C575.505 195.5 559.005 223.491 582.505 223C588.005 222.885 592.105 214.2 586.505 205ZM589.505 152C584.505 182.833 579.105 239.3 597.505 218.5C594.505 209.5 604.005 199.8 612.005 205M612.005 205C601.505 199.5 586.505 224 609.505 223C613.505 220.5 620.005 214.2 612.005 205ZM617.005 216C615.505 224 626.505 226 631.005 220.5C635.505 215 629.505 213 626.505 212C624.197 211.231 620.172 209.833 619.505 209C616.305 201 631.005 202.5 627.505 208.5C630.221 206.858 634.124 203.818 638.164 199.5M638.164 199.5C644.785 192.424 651.773 181.915 654.505 168.5C654.505 145.5 645.323 144.5 638.164 199.5ZM638.164 199.5L637.005 223C634.505 208 641.705 194.2 650.505 205C651.172 207.167 651.905 212.8 649.505 218C646.505 224.5 656.505 224 659.005 217.5C661.005 212.3 659.172 205 658.005 202C660.005 206.333 663.005 216.6 659.005 223C661.064 217.853 661.533 213.633 661.231 210M661.231 210C660.947 206.574 659.976 203.669 659.005 201C667.005 197.5 673.958 208 661.231 210ZM661.231 210C674.005 207.992 678.505 223.5 658.005 223.5M672.005 210.5C673.839 208.667 679.705 205.7 688.505 208.5C686.005 198 671.005 195 673.505 215C675.505 231 687.339 221.667 693.005 215C697.172 203.333 705.105 174.8 703.505 154C701.85 132.474 698.48 190.12 697.653 214M713.505 202C707.505 197 696.505 196.5 697.505 223.5C697.419 222.468 697.481 218.963 697.653 214M697.653 214C701.005 205 717.85 211.198 712.005 220.5C665.505 294.5 776.505 330 760.005 249" stroke="white" stroke-width="4"/>
</svg>
