<svg width="44" height="44" viewBox="0 0 44 44" fill="none" xmlns="http://www.w3.org/2000/svg">
<path d="M22 3.66667C27.0545 3.66667 31.1667 7.77883 31.1667 12.8352C31.1667 17.8878 27.0545 22.0018 22 22.0018C16.9455 22.0018 12.8333 17.8878 12.8333 12.8352C12.8333 7.77883 16.9455 3.66667 22 3.66667ZM22 0C14.9123 0 9.16667 5.74567 9.16667 12.8352C9.16667 19.921 14.9123 25.6685 22 25.6685C29.0877 25.6685 34.8333 19.921 34.8333 12.8352C34.8333 5.74567 29.0877 0 22 0V0ZM33.6765 24.4805C32.7653 25.3935 31.7387 26.1873 30.6368 26.8675C35.9022 30.3032 38.6632 36.1863 39.7522 40.3352H4.20933C5.258 36.1368 7.98233 30.2463 13.3265 26.8455C12.221 26.1598 11.1962 25.3587 10.2868 24.4402C2.4805 30.0722 0 40.0345 0 44H44C44 40.073 41.36 30.1455 33.6765 24.4805Z" fill="#1B1B1B"/>
</svg>
